<?xml version="1.0" encoding="UTF-8" standalone="no"?><!DOCTYPE svg PUBLIC "-//W3C//DTD SVG 1.1//EN" "http://www.w3.org/Graphics/SVG/1.1/DTD/svg11.dtd"><svg width="100%" height="100%" viewBox="0 0 110 110" version="1.1" xmlns="http://www.w3.org/2000/svg" xmlns:xlink="http://www.w3.org/1999/xlink" xml:space="preserve" xmlns:serif="http://www.serif.com/" style="fill-rule:evenodd;clip-rule:evenodd;stroke-linejoin:round;stroke-miterlimit:1.41421;"><rect id="Artboard1" x="0" y="0" width="110" height="110" style="fill:none;"/><g><path d="M6.9,31.9c14.1,5.9 24.8,15.3 31.4,30.4c3.1,-23.1 -6.4,-42.1 -13.7,-61.7c6.2,8 11.5,16.5 16.4,25.2c9.6,16.9 17.8,34.3 19.5,54c0.8,8.8 -0.8,17.2 -3.7,25.5c-1.2,3.3 -2.6,3.8 -5.1,0.8c-8.1,-9.5 -16.7,-18.6 -26.4,-26.5c-2,-1.6 -3,-3.6 -3.3,-5.9c-1.7,-15.1 -4.7,-29.7 -15.1,-41.8Z" style="fill:#fff;fill-rule:nonzero;"/><path d="M103.9,31.8c-11.6,12.3 -14.5,27.1 -16.3,42.3c-0.2,1.7 -0.7,3.3 -1.9,4.5c-4,4 -8,8.1 -12,12.1c-0.6,0.6 -1.2,1.3 -2.1,1c-1,-0.4 -0.8,-1.4 -0.8,-2.2c-0.1,-1.3 -0.2,-2.7 0,-4c3.4,-20.6 10.6,-39.2 28.2,-52.1c1.1,-0.8 2.1,-1.8 4.9,-1.6Z" style="fill:#fff;fill-rule:nonzero;"/><path d="M66.3,63.1c-2.3,-6.2 -4.5,-12.4 -6.8,-18.6c-0.5,-1.3 -0.3,-2.6 0.2,-3.9c6.3,-14.7 15.8,-27.5 25.9,-39.9c-2.4,6.1 -4.7,12.3 -7.2,18.3c-4.2,10.2 -6.5,20.9 -7.3,31.9c-0.3,4.4 -2.1,8.2 -3.5,12.2c-0.5,0 -0.9,0 -1.3,0Z" style="fill:#fff;fill-rule:nonzero;"/></g></svg>