<?xml version="1.0" encoding="UTF-8" standalone="no"?><!DOCTYPE svg PUBLIC "-//W3C//DTD SVG 1.1//EN" "http://www.w3.org/Graphics/SVG/1.1/DTD/svg11.dtd"><svg width="100%" height="100%" viewBox="0 0 137 110" version="1.1" xmlns="http://www.w3.org/2000/svg" xmlns:xlink="http://www.w3.org/1999/xlink" xml:space="preserve" xmlns:serif="http://www.serif.com/" style="fill-rule:evenodd;clip-rule:evenodd;stroke-linejoin:round;stroke-miterlimit:1.41421;"><rect id="Artboard1" x="0" y="0" width="136.647" height="110" style="fill:none;"/><g><path d="M2,24.979c13.042,0 26.084,0.097 39.126,-0.193c5.314,-0.097 7.246,4.251 10.53,6.762c3.961,3.092 4.927,6.473 3.092,11.303c-2.126,5.507 -3.478,11.4 -4.927,17.1c-0.773,2.898 -2.222,3.575 -4.927,2.415c-3.961,-1.739 -8.019,-3.381 -12.076,-4.83c-3.381,-1.256 -3.188,-2.898 -1.256,-5.314c2.319,-2.898 4.444,-5.893 6.666,-8.887c1.256,-1.739 0.773,-2.899 -1.353,-2.802c-13.138,0.869 -22.896,-6.28 -32.653,-13.525c-0.676,-0.483 -1.353,-0.773 -2.125,-1.159c-0.097,-0.194 -0.097,-0.58 -0.097,-0.87Z" style="fill:#fff;fill-rule:nonzero;"/><path d="M133.386,25.945c-3.767,2.512 -7.438,5.12 -11.206,7.536c-6.666,4.347 -13.815,7.632 -22.123,7.149c-1.063,-0.097 -2.512,-0.387 -3.188,0.676c-0.966,1.449 0.579,2.318 1.256,3.284c1.932,2.802 3.961,5.41 6.086,8.115c1.642,2.126 1.835,3.672 -1.063,4.734c-4.347,1.643 -8.694,3.382 -13.042,5.217c-2.318,0.966 -3.671,0.29 -4.347,-2.125c-2.029,-7.149 -4.058,-14.202 -6.086,-21.351c-0.194,-0.772 -0.29,-1.642 -0.194,-2.415c0.677,-3.478 11.11,-11.883 14.685,-11.883c13.042,0 26.084,0.097 39.126,0.097c0.096,0.29 0.096,0.676 0.096,0.966Z" style="fill:#fff;fill-rule:nonzero;"/><path d="M52.526,95.599c1.352,-6.859 2.898,-14.491 4.444,-22.219c1.932,-9.468 3.767,-18.936 5.7,-28.403c0.386,-2.126 0.386,-5.217 3.961,-2.609c0.289,0.194 0.676,0.387 0.869,0.29c6.473,-3.478 5.313,2.319 5.893,5.12c3.188,15.264 5.99,30.625 9.274,45.793c0.773,3.574 -0.193,5.603 -2.994,7.728c-12.559,9.661 -13.622,9.661 -25.312,-1.256c-1.159,-0.869 -2.125,-1.835 -1.835,-4.444Z" style="fill:#fff;fill-rule:nonzero;"/><path d="M86.532,9.812c-0.387,0.579 -0.87,1.642 -1.546,2.511c-5.024,6.087 -10.144,12.076 -15.071,18.163c-1.739,2.125 -2.995,1.739 -4.54,-0.194c-4.831,-5.989 -9.758,-11.882 -14.781,-17.775c-1.643,-1.932 -2.126,-3.768 -0.773,-6.087c1.352,-2.415 2.415,-4.83 5.893,-4.83c7.922,0.097 15.747,0 23.669,0.097c3.188,0.096 7.342,4.54 7.149,8.115Z" style="fill:#fff;fill-rule:nonzero;"/></g></svg>